<svg xmlns="http://www.w3.org/2000/svg" viewBox="0 0 64 64">
  <rect x="2" y="2" width="60" height="60" rx="16" fill="#ffe600" stroke="#111" stroke-width="4"/>
  <!-- head -->
  <ellipse cx="32" cy="35" rx="19" ry="23" fill="#ffc899" stroke="#111" stroke-width="3.5"/>
  <!-- hair swoop -->
  <path d="M13.5 30 C12 14 24 9 33 10 C44 10 52 17 50.5 29 C45 22 38 20 31 23 C25 19 18 23 13.5 30 Z" fill="#6b3b1f" stroke="#111" stroke-width="3" stroke-linejoin="round"/>
  <!-- googly eyes -->
  <circle cx="24.5" cy="34" r="7" fill="#fff" stroke="#111" stroke-width="3"/>
  <circle cx="40.5" cy="33" r="7.5" fill="#fff" stroke="#111" stroke-width="3"/>
  <circle cx="23" cy="36.5" r="3.2" fill="#111"/>
  <circle cx="43" cy="30.5" r="3.4" fill="#111"/>
  <!-- mouth + tongue -->
  <path d="M24 46 Q32 53 40 45" fill="none" stroke="#111" stroke-width="3" stroke-linecap="round"/>
  <path d="M30 49 Q30 56 34.5 55.5 Q38 55 36.5 48.5" fill="#ff5a7a" stroke="#111" stroke-width="2.5" stroke-linejoin="round"/>
</svg>
